<?xml version="1.0" standalone="no"?>
<!DOCTYPE svg PUBLIC "-//W3C//DTD SVG 20010904//EN"
 "http://www.w3.org/TR/2001/REC-SVG-20010904/DTD/svg10.dtd">
<svg version="1.0" xmlns="http://www.w3.org/2000/svg"
 width="200.000000pt" height="58.000000pt" viewBox="0 0 200.000000 58.000000"
 preserveAspectRatio="xMidYMid meet">

<g transform="translate(0.000000,58.000000) scale(0.100000,-0.100000)"
fill="#000000" stroke="none">
<path d="M1700 536 c0 -30 -3 -34 -34 -40 -41 -8 -116 -60 -116 -81 0 -22 15
-18 62 15 22 16 52 30 65 30 19 0 23 -5 23 -30 0 -20 5 -30 15 -30 12 0 15 16
15 85 0 69 -3 85 -15 85 -10 0 -15 -10 -15 -34z"/>
<path d="M254 535 c-4 -9 -2 -21 4 -27 15 -15 44 -1 40 19 -4 23 -36 29 -44 8z"/>
<path d="M504 535 c-4 -9 -2 -21 4 -27 15 -15 44 -1 40 19 -4 23 -36 29 -44 8z"/>
<path d="M590 440 c0 -103 1 -110 20 -110 19 0 20 7 20 110 0 103 -1 110 -20
110 -19 0 -20 -7 -20 -110z"/>
<path d="M1167 536 c-7 -17 18 -40 33 -31 5 3 10 15 10 26 0 23 -35 27 -43 5z"/>
<path d="M53 435 c38 -97 44 -105 66 -103 21 3 31 17 63 97 21 52 38 99 38
103 0 5 -10 8 -22 6 -19 -2 -28 -17 -48 -75 -14 -40 -27 -73 -30 -73 -3 0 -17
33 -31 73 -22 62 -30 72 -52 75 l-26 3 42 -106z"/>
<path d="M701 526 c-10 -11 -3 -14 39 -14 42 0 49 3 39 14 -6 8 -24 14 -39 14
-15 0 -33 -6 -39 -14z"/>
<path d="M250 405 c0 -73 1 -75 25 -75 24 0 25 2 25 75 0 73 -1 75 -25 75 -24
0 -25 -2 -25 -75z"/>
<path d="M345 464 c-11 -11 -14 -24 -10 -38 10 -29 7 -88 -5 -100 -15 -15 7
-44 41 -51 40 -9 88 11 95 41 8 31 -2 44 -36 44 -36 0 -61 10 -54 21 3 5 16 9
29 9 24 0 59 36 49 52 -3 4 0 8 5 8 6 0 11 7 11 15 0 22 -103 21 -125 -1z m64
-13 c17 -11 7 -41 -13 -41 -19 0 -29 17 -22 35 6 17 15 18 35 6z m18 -135 c-5
-15 -47 -20 -61 -6 -8 8 -7 13 2 19 18 11 64 1 59 -13z"/>
<path d="M500 405 c0 -68 2 -75 20 -75 18 0 20 7 20 75 0 68 -2 75 -20 75 -18
0 -20 -7 -20 -75z"/>
<path d="M693 473 c-7 -2 -13 -11 -13 -19 0 -9 11 -13 37 -11 29 1 38 -2 41
-15 3 -14 -3 -18 -25 -18 -40 0 -66 -21 -61 -51 3 -22 7 -24 66 -25 l62 -1 0
54 c0 75 -12 93 -58 92 -20 0 -43 -3 -49 -6z m65 -100 c-4 -22 -48 -31 -48
-10 0 19 10 27 32 27 13 0 18 -6 16 -17z"/>
<path d="M840 403 c0 -66 2 -73 20 -73 16 0 19 8 22 58 3 53 5 57 28 57 23 0
25 -4 28 -57 3 -50 6 -58 22 -58 17 0 20 7 20 56 0 84 -9 93 -80 91 l-60 -1 0
-73z"/>
<path d="M1030 460 c-24 -24 -26 -77 -4 -108 11 -16 25 -22 52 -22 47 0 72 14
55 31 -9 9 -15 9 -26 0 -32 -26 -65 16 -52 66 5 23 10 25 40 20 23 -4 35 -1
39 8 11 30 -75 34 -104 5z"/>
<path d="M1170 405 c0 -68 2 -75 20 -75 18 0 20 7 20 75 0 68 -2 75 -20 75
-18 0 -20 -7 -20 -75z"/>
<path d="M1273 473 c-7 -2 -13 -11 -13 -19 0 -9 11 -13 38 -11 49 3 52 -24 4
-34 -43 -9 -55 -21 -50 -50 3 -22 8 -24 66 -25 l62 -1 0 58 c0 39 -5 63 -16
73 -15 15 -65 20 -91 9z m65 -100 c-4 -22 -48 -31 -48 -10 0 19 10 27 32 27
13 0 18 -6 16 -17z"/>
<path d="M1825 450 c-3 -5 7 -27 24 -47 16 -21 33 -50 36 -65 6 -24 4 -27 -27
-30 -21 -2 -33 -8 -33 -18 0 -11 15 -16 65 -18 75 -4 113 4 107 21 -2 7 -19
14 -37 17 -28 4 -35 11 -44 43 -11 38 -60 107 -76 107 -5 0 -12 -4 -15 -10z"/>
<path d="M1442 293 c2 -12 14 -19 34 -21 27 -3 33 -8 38 -35 9 -43 55 -107 77
-107 26 0 24 19 -6 50 -14 15 -29 41 -34 58 -9 30 -8 31 22 34 21 2 33 9 35
21 3 15 -6 17 -83 17 -77 0 -86 -2 -83 -17z"/>
<path d="M53 250 c-29 -12 -46 -46 -39 -76 5 -17 21 -31 52 -44 72 -31 42 -72
-35 -49 -8 2 -16 -3 -18 -13 -3 -11 7 -20 31 -28 61 -20 106 8 106 66 0 32 -4
37 -45 55 -50 22 -57 29 -45 48 5 10 19 12 43 7 35 -7 59 7 41 24 -15 13 -68
19 -91 10z"/>
<path d="M584 245 c-4 -9 -2 -21 4 -27 15 -15 44 -1 40 19 -4 23 -36 29 -44 8z"/>
<path d="M892 248 c-7 -7 -12 -16 -12 -20 0 -15 27 -8 45 12 18 19 17 20 -1
20 -11 0 -25 -5 -32 -12z"/>
<path d="M1154 245 c-4 -9 -2 -21 4 -27 15 -15 44 -1 40 19 -4 23 -36 29 -44
8z"/>
<path d="M707 234 c-4 -4 -7 -16 -7 -26 0 -10 -7 -18 -15 -18 -8 0 -15 -7 -15
-15 0 -8 5 -15 10 -15 6 0 10 -22 10 -49 0 -66 27 -93 74 -75 18 7 10 34 -10
34 -10 0 -14 13 -14 45 0 33 4 45 15 45 8 0 15 7 15 15 0 8 -6 15 -14 15 -8 0
-16 10 -18 22 -3 22 -19 33 -31 22z"/>
<path d="M223 183 c-7 -2 -13 -11 -13 -19 0 -9 11 -13 37 -11 29 1 38 -2 41
-15 3 -14 -3 -18 -23 -18 -42 0 -65 -17 -65 -49 0 -22 6 -30 25 -35 14 -4 34
-2 44 3 10 6 27 7 39 4 21 -5 22 -2 22 54 0 45 -4 64 -18 76 -18 16 -63 21
-89 10z m67 -98 c0 -19 -24 -29 -46 -21 -13 5 -14 9 -4 21 16 20 50 19 50 0z"/>
<path d="M380 114 c0 -72 1 -74 25 -74 22 0 24 4 27 58 3 49 6 57 23 57 17 0
20 -8 23 -57 3 -50 6 -58 22 -58 18 0 20 7 20 64 0 39 -5 68 -13 74 -6 6 -38
10 -70 10 l-57 -1 0 -73z"/>
<path d="M580 115 c0 -68 2 -75 20 -75 18 0 20 7 20 75 0 68 -2 75 -20 75 -18
0 -20 -7 -20 -75z"/>
<path d="M843 183 c-7 -2 -13 -11 -13 -19 0 -9 11 -13 37 -11 27 1 38 -2 40
-14 3 -11 -9 -18 -39 -25 -36 -8 -43 -13 -46 -36 -4 -34 29 -55 63 -40 13 6
32 8 44 5 20 -5 21 -1 21 55 0 42 -5 65 -16 76 -15 15 -65 20 -91 9z m65 -100
c-4 -22 -48 -31 -48 -10 0 19 10 27 32 27 13 0 18 -6 16 -17z"/>
<path d="M1010 115 c0 -68 2 -75 19 -75 17 0 20 8 23 53 3 44 6 52 24 55 27 4
40 42 15 42 -9 0 -23 -6 -30 -12 -11 -10 -14 -10 -18 0 -3 6 -11 12 -19 12
-11 0 -14 -17 -14 -75z"/>
<path d="M1150 115 c0 -68 2 -75 20 -75 18 0 20 7 20 75 0 68 -2 75 -20 75
-18 0 -20 -7 -20 -75z"/>
<path d="M1273 183 c-7 -2 -13 -11 -13 -19 0 -9 11 -13 37 -11 27 1 38 -2 40
-14 3 -11 -9 -18 -39 -25 -36 -8 -43 -13 -46 -36 -4 -34 29 -55 63 -40 13 6
32 8 44 5 20 -5 21 -1 21 55 0 42 -5 65 -16 76 -15 15 -65 20 -91 9z m65 -100
c-4 -22 -48 -31 -48 -10 0 19 10 27 32 27 13 0 18 -6 16 -17z"/>
<path d="M1707 183 c-4 -3 -7 -44 -7 -90 0 -67 3 -83 15 -83 10 0 15 10 15 33
0 30 4 34 50 50 64 23 106 58 97 82 -7 16 -9 16 -30 1 -93 -68 -117 -73 -117
-21 0 33 -8 43 -23 28z"/>
</g>
</svg>
